<svg width="32" height="32" viewBox="0 0 32 32" fill="none" xmlns="http://www.w3.org/2000/svg">
<path fill-rule="evenodd" clip-rule="evenodd" d="M0 9C0 4.02944 4.02944 0 9 0H16C17.1046 0 18 0.89544 18 2C18 3.10456 17.1046 4 16 4H9C6.23858 4 4 6.23858 4 9C4 11.7614 6.23858 14 9 14H23C27.9706 14 32 18.0294 32 23C32 27.9706 27.9706 32 23 32H16C14.8954 32 14 31.1046 14 30C14 28.8954 14.8954 28 16 28H23C25.7614 28 28 25.7614 28 23C28 20.2386 25.7614 18 23 18H9C4.02944 18 0 13.9706 0 9Z" fill="black"/>
</svg>
