<svg width="18" height="18" viewBox="0 0 18 18" fill="none" xmlns="http://www.w3.org/2000/svg">
<path d="M15.4508 8.9998C15.4508 12.562 12.563 15.4498 9.00078 15.4498C5.43854 15.4498 2.55078 12.562 2.55078 8.9998C2.55078 5.43757 5.43854 2.5498 9.00078 2.5498C12.563 2.5498 15.4508 5.43757 15.4508 8.9998ZM9.01604 5.82692C8.50972 5.48938 7.85873 5.45791 7.32222 5.74504C6.78571 6.03217 6.45078 6.59129 6.45078 7.19981V10.7998C6.45078 11.4083 6.78571 11.9674 7.32222 12.2546C7.85872 12.5417 8.50972 12.5102 9.01604 12.1727L11.716 10.3727C12.1751 10.0667 12.4508 9.55149 12.4508 8.99981C12.4508 8.44812 12.1751 7.93294 11.716 7.62692L9.01604 5.82692Z" fill="#12141D" stroke="#12141D" stroke-width="1.5"/>
</svg>
