<svg width="17" height="17" viewBox="0 0 17 17" fill="none" xmlns="http://www.w3.org/2000/svg">
<path d="M7.87222 1.68307C8.19348 0.706554 9.59226 0.706555 9.91352 1.68307L11.0613 5.17212C11.205 5.60883 11.6171 5.90451 12.082 5.90451H15.7965C16.8361 5.90451 17.2683 7.2184 16.4272 7.82192L13.4222 9.97827C13.0461 10.2482 12.8887 10.7266 13.0323 11.1633L14.1802 14.6524C14.5014 15.6289 13.3698 16.4409 12.5287 15.8374L9.52366 13.681C9.14753 13.4111 8.63821 13.4111 8.26208 13.681L5.25702 15.8374C4.41596 16.4409 3.28432 15.6289 3.60558 14.6523L4.75341 11.1633C4.89708 10.7266 4.73969 10.2482 4.36356 9.97827L1.3585 7.82192C0.517438 7.2184 0.949685 5.90451 1.98929 5.90451H5.70375C6.16867 5.90451 6.58072 5.60883 6.72439 5.17212L7.87222 1.68307Z" fill="#F59E0B"/>
</svg>
